<svg height="512pt" viewBox="0 0 512 512" width="512pt" xmlns="http://www.w3.org/2000/svg"><path d="m204.996094 399.992188c-8.285156 0-15-6.714844-15-15 0-68.164063 26.511718-132.214844 74.644531-180.347657 48.136719-48.136719 112.1875-74.648437 180.351563-74.648437 8.28125 0 14.996093 6.71875 14.996093 15 0 8.285156-6.714843 15-14.996093 15-124.0625 0-224.996094 100.933594-224.996094 224.996094 0 8.285156-6.714844 15-15 15zm0 0" fill="#ffa4ff"/><path d="m134.996094 439.992188c-8.28125 0-15-6.71875-15-15 0-46.871094-38.128906-85-84.996094-85-8.285156 0-15-6.714844-15-15 0-8.28125 6.714844-15 15-15 63.410156 0 114.996094 51.589843 114.996094 115 0 8.28125-6.714844 15-15 15zm0 0" fill="#ff636f"/><path d="m364.8125 512c-5.839844 0-11.71875-.484375-17.59375-1.464844-69.78125-11.628906-117.089844-77.863281-105.460938-147.644531 1.363282-8.167969 9.09375-13.691406 17.261719-12.328125 8.171875 1.363281 13.691407 9.089844 12.328125 17.261719-8.910156 53.464843 27.339844 104.210937 80.804688 113.121093 19.929687 3.324219 39.960937-1.316406 56.398437-13.058593 16.441407-11.742188 27.324219-29.1875 30.644531-49.113281 5.214844-31.28125-15.992187-60.972657-47.273437-66.1875-11.332031-1.886719-22.722656.75-32.070313 7.425781-9.347656 6.679687-15.535156 16.597656-17.425781 27.929687-2.847656 17.082032 8.734375 33.296875 25.816407 36.144532 12.039062 2 23.457031-6.15625 25.464843-18.1875 1.363281-8.171876 9.089844-13.691407 17.261719-12.332032 8.171875 1.363282 13.691406 9.089844 12.328125 17.261719-4.726563 28.351563-31.644531 47.570313-59.984375 42.847656-16.179688-2.695312-30.339844-11.53125-39.875-24.878906s-13.296875-29.609375-10.601562-45.789063c3.207031-19.234374 13.710937-36.070312 29.578124-47.40625 15.871094-11.335937 35.207032-15.8125 54.4375-12.605468 47.597657 7.933594 79.867188 53.109375 71.933594 100.707031-4.636718 27.832031-19.835937 52.195313-42.796875 68.59375-18.117187 12.941406-39.351562 19.703125-61.175781 19.703125zm0 0" fill="#fff55a"/><path d="m119.386719 186.808594c-4.679688 0-9.292969-2.183594-12.21875-6.28125-4.816407-6.738282-3.253907-16.109375 3.488281-20.921875 16.4375-11.746094 27.324219-29.1875 30.644531-49.117188 3.320313-19.929687-1.316406-39.960937-13.058593-56.402343-18.433594-25.800782-54.421876-31.800782-80.230469-13.371094-19.296875 13.785156-23.78125 40.699218-10 60 4.878906 6.824218 12.121093 11.34375 20.394531 12.722656s16.59375-.546875 23.421875-5.421875c4.808594-3.433594 7.992187-8.539063 8.964844-14.367187.96875-5.832032-.386719-11.6875-3.820313-16.5-4.816406-6.738282-3.253906-16.105469 3.484375-20.921876 6.742188-4.816406 16.109375-3.253906 20.925781 3.484376 8.09375 11.332031 11.289063 25.136718 9 38.867187-2.289062 13.734375-9.789062 25.757813-21.117187 33.847656-13.347656 9.535157-29.613281 13.300781-45.789063 10.605469-16.179687-2.699219-30.339843-11.535156-39.875-24.878906-23.394531-32.757813-15.78125-78.445313 16.976563-101.847656 39.265625-28.046876 94.027344-18.917969 122.074219 20.347656 16.402344 22.960937 22.878906 50.933594 18.242187 78.769531-4.640625 27.832031-19.839843 52.191406-42.800781 68.59375-2.644531 1.886719-5.6875 2.792969-8.707031 2.792969zm0 0" fill="#fff55a"/><path d="m255.996094 116.996094c-24.8125 0-45-20.183594-45-44.996094s20.1875-45 45-45 44.996094 20.1875 44.996094 45-20.183594 44.996094-44.996094 44.996094zm0 0" fill="#ff636f"/><path d="m255.996094 27v89.996094c24.8125 0 44.996094-20.183594 44.996094-44.996094s-20.183594-45-44.996094-45zm0 0" fill="#e83950"/><path d="m149.996094 293.992188c-8.28125 0-15-6.714844-15-15v-29.996094c0-8.285156 6.71875-15 15-15 8.285156 0 15 6.714844 15 15v29.996094c0 8.285156-6.714844 15-15 15zm0 0" fill="#8cdefb"/><path d="m205.996094 204.996094c-3.839844 0-7.679688-1.464844-10.605469-4.394532-5.859375-5.855468-5.859375-15.355468 0-21.210937l21.210937-21.214844c5.859376-5.855469 15.355469-5.855469 21.214844 0 5.855469 5.859375 5.855469 15.355469 0 21.214844l-21.214844 21.210937c-2.929687 2.929688-6.769531 4.394532-10.605468 4.394532zm0 0" fill="#80e981"/><path d="m194.996094 489.988281h-30c-8.285156 0-15-6.714843-15-15 0-8.28125 6.714844-15 15-15h30c8.285156 0 15 6.71875 15 15 0 8.285157-6.714844 15-15 15zm0 0" fill="#8cdefb"/><path d="m55 509.988281c-3.839844 0-7.679688-1.464843-10.605469-4.394531-5.859375-5.855469-5.859375-15.351562 0-21.210938l20-20c5.855469-5.859374 15.351563-5.859374 21.210938 0 5.859375 5.859376 5.859375 15.355469 0 21.210938l-20 20c-2.929688 2.929688-6.769531 4.394531-10.605469 4.394531zm0 0" fill="#ffa4ff"/><path d="m30 418.992188c0 8.28125-6.714844 15-15 15s-15-6.71875-15-15c0-8.285157 6.714844-15 15-15s15 6.714843 15 15zm0 0" fill="#fff55a"/><path d="m45 277.992188c-24.8125 0-45-20.183594-45-44.996094 0-8.285156 6.714844-15 15-15s15 6.714844 15 15c0 8.269531 6.726562 15 15 15 8.28125 0 15 6.714844 15 15 0 8.28125-6.71875 14.996094-15 14.996094zm0 0" fill="#80e981"/><path d="m414.992188 289.992188c-24.8125 0-45-20.183594-45-44.996094s20.1875-45 45-45 44.996093 20.1875 44.996093 45-20.183593 44.996094-44.996093 44.996094zm0 0" fill="#5bcb80"/><path d="m444.992188 129.996094c-68.164063 0-132.214844 26.511718-180.351563 74.648437-2.964844 2.964844-5.847656 5.992188-8.644531 9.074219v49.324219c40.117187-61.960938 109.84375-103.046875 188.996094-103.046875 8.28125 0 14.996093-6.714844 14.996093-15 0-8.28125-6.714843-15-14.996093-15zm0 0" fill="#fa79f4"/><path d="m396.851562 322.996094c-19.230468-3.207032-38.566406 1.269531-54.4375 12.605468-15.867187 11.332032-26.371093 28.171876-29.578124 47.40625-2.695313 16.179688 1.066406 32.441407 10.601562 45.789063 9.535156 13.34375 23.695312 22.179687 39.875 24.878906 28.339844 4.722657 55.261719-14.496093 59.988281-42.847656 1.359375-8.171875-4.160156-15.898437-12.332031-17.261719-8.167969-1.359375-15.898438 4.15625-17.261719 12.328125-2.003906 12.035157-13.425781 20.191407-25.464843 18.1875-17.082032-2.84375-28.664063-19.058593-25.816407-36.140625 1.890625-11.332031 8.078125-21.25 17.425781-27.929687 9.351563-6.675781 20.738282-9.3125 32.070313-7.425781 31.28125 5.214843 52.488281 34.902343 47.273437 66.183593-3.320312 19.929688-14.203124 37.375-30.644531 49.117188-16.4375 11.742187-36.46875 16.382812-56.398437 13.058593-53.464844-8.910156-89.714844-59.65625-80.800782-113.121093 1.359376-8.171875-4.160156-15.902344-12.332031-17.261719-1.019531-.171875-2.03125-.234375-3.023437-.199219v95.515625c18.316406 33.15625 51.042968 57.960938 91.222656 64.65625 5.875.980469 11.753906 1.464844 17.59375 1.464844 21.824219 0 43.0625-6.765625 61.175781-19.703125 22.964844-16.402344 38.164063-40.761719 42.800781-68.597656 7.933594-47.59375-24.335937-92.769531-71.9375-100.703125zm0 0" fill="#ffe54e"/><path d="m370.992188 15c0 8.285156-6.714844 15-15 15-8.285157 0-15-6.714844-15-15s6.714843-15 15-15c8.285156 0 15 6.714844 15 15zm0 0" fill="#ffe54e"/><path d="m511.988281 335.992188c0 8.285156-6.714843 15-15 15-8.28125 0-15-6.714844-15-15 0-8.285157 6.71875-15 15-15 8.285157 0 15 6.714843 15 15zm0 0" fill="#e83950"/><path d="m436.992188 90c-8.285157 0-15-6.71875-15-15 0-41.355469 33.644531-75 74.996093-75 8.285157 0 15 6.714844 15 15s-6.714843 15-15 15c-24.8125 0-44.996093 20.1875-44.996093 45 0 8.28125-6.71875 15-15 15zm0 0" fill="#67c9ea"/></svg>